<svg width="42" height="42" viewBox="0 0 42 42" fill="none" xmlns="http://www.w3.org/2000/svg">
<rect width="42" height="42" rx="10" fill="#FFFFFE"/>
<path fill-rule="evenodd" clip-rule="evenodd" d="M12.5625 21C12.7117 21 12.8548 21.0593 12.9602 21.1648C13.0657 21.2702 13.125 21.4133 13.125 21.5625V25.5C13.125 25.7984 13.2435 26.0845 13.4545 26.2955C13.6655 26.5065 13.9516 26.625 14.25 26.625H27.75C28.0484 26.625 28.3345 26.5065 28.5455 26.2955C28.7565 26.0845 28.875 25.7984 28.875 25.5V21.5625C28.875 21.4133 28.9343 21.2702 29.0398 21.1648C29.1452 21.0593 29.2883 21 29.4375 21C29.5867 21 29.7298 21.0593 29.8352 21.1648C29.9407 21.2702 30 21.4133 30 21.5625V25.5C30 26.0967 29.7629 26.669 29.341 27.091C28.919 27.5129 28.3467 27.75 27.75 27.75H14.25C13.6533 27.75 13.081 27.5129 12.659 27.091C12.2371 26.669 12 26.0967 12 25.5V21.5625C12 21.4133 12.0593 21.2702 12.1648 21.1648C12.2702 21.0593 12.4133 21 12.5625 21Z" fill="#8D01E8"/>
<path fill-rule="evenodd" clip-rule="evenodd" d="M17.6249 20.4376C17.7304 20.3322 17.8735 20.2729 18.0226 20.2729C18.1718 20.2729 18.3148 20.3322 18.4203 20.4376L20.9999 23.0173L23.5796 20.4376C23.6315 20.3839 23.6935 20.341 23.7622 20.3116C23.8308 20.2821 23.9046 20.2666 23.9793 20.2659C24.054 20.2653 24.128 20.2795 24.1972 20.3078C24.2663 20.3361 24.3291 20.3778 24.3819 20.4307C24.4347 20.4835 24.4765 20.5463 24.5048 20.6154C24.5331 20.6845 24.5473 20.7586 24.5466 20.8333C24.546 20.908 24.5305 20.9818 24.501 21.0504C24.4715 21.119 24.4287 21.1811 24.3749 21.233L21.3982 24.2109C21.3459 24.2633 21.2839 24.3048 21.2155 24.3332C21.1472 24.3615 21.0739 24.3761 20.9999 24.3761C20.926 24.3761 20.8527 24.3615 20.7844 24.3332C20.716 24.3048 20.6539 24.2633 20.6017 24.2109L17.6249 21.233C17.5195 21.1275 17.4603 20.9845 17.4603 20.8353C17.4603 20.6862 17.5195 20.5431 17.6249 20.4376Z" fill="#8D01E8"/>
<path fill-rule="evenodd" clip-rule="evenodd" d="M21 13.125C21.1492 13.125 21.2923 13.1843 21.3977 13.2898C21.5032 13.3952 21.5625 13.5383 21.5625 13.6875V22.6875C21.5625 22.8367 21.5032 22.9798 21.3977 23.0852C21.2923 23.1907 21.1492 23.25 21 23.25C20.8508 23.25 20.7077 23.1907 20.6023 23.0852C20.4968 22.9798 20.4375 22.8367 20.4375 22.6875V13.6875C20.4375 13.5383 20.4968 13.3952 20.6023 13.2898C20.7077 13.1843 20.8508 13.125 21 13.125Z" fill="#8D01E8"/>
</svg>
